<svg width="200" height="200" viewBox="0 0 200 200" fill="none" xmlns="http://www.w3.org/2000/svg">
  <!-- Gift box base -->
  <g id="gift-box">
    <!-- Box bottom -->
    <rect x="50" y="100" width="100" height="70" rx="4" fill="#E8F4F8" stroke="#1976D2" stroke-width="2"/>

    <!-- Box lid -->
    <rect x="45" y="85" width="110" height="20" rx="4" fill="#BBDEFB" stroke="#1976D2" stroke-width="2"/>

    <!-- Ribbon vertical -->
    <rect x="95" y="85" width="10" height="85" fill="#1976D2"/>

    <!-- Ribbon horizontal -->
    <rect x="45" y="110" width="110" height="10" fill="#1976D2"/>

    <!-- Bow top -->
    <ellipse cx="80" cy="80" rx="15" ry="10" fill="#1976D2"/>
    <ellipse cx="120" cy="80" rx="15" ry="10" fill="#1976D2"/>
    <circle cx="100" cy="80" r="8" fill="#1976D2"/>
  </g>

  <!-- Floating stars -->
  <g id="stars">
    <!-- Star 1 -->
    <path d="M30 50 L32 56 L38 56 L33 60 L35 66 L30 62 L25 66 L27 60 L22 56 L28 56 Z" fill="#FFC107" opacity="0.8"/>

    <!-- Star 2 -->
    <path d="M170 40 L172 46 L178 46 L173 50 L175 56 L170 52 L165 56 L167 50 L162 46 L168 46 Z" fill="#FFC107" opacity="0.8"/>

    <!-- Star 3 -->
    <path d="M160 120 L161.5 124 L165.5 124 L162.5 126.5 L164 130.5 L160 128 L156 130.5 L157.5 126.5 L154.5 124 L158.5 124 Z" fill="#FFC107" opacity="0.6"/>

    <!-- Star 4 -->
    <path d="M40 130 L41.5 134 L45.5 134 L42.5 136.5 L44 140.5 L40 138 L36 140.5 L37.5 136.5 L34.5 134 L38.5 134 Z" fill="#FFC107" opacity="0.6"/>
  </g>

  <!-- Sparkles -->
  <g id="sparkles">
    <circle cx="140" cy="70" r="2" fill="#64B5F6"/>
    <circle cx="60" cy="90" r="2" fill="#64B5F6"/>
    <circle cx="145" cy="140" r="2" fill="#64B5F6"/>
    <circle cx="55" cy="160" r="2" fill="#64B5F6"/>
  </g>
</svg>
