<svg version="1.0" xmlns="http://www.w3.org/2000/svg" viewBox="0 0 512 512">
  <path fill="currentColor" d="M141.5 33c-35.2 5.5-63.3 30.9-72.6 65.5-1.7 6.2-2.2 10.9-2.2 21 0 14.1 1.8 23.4 6.8 34.3 1.4 3 2.5 5.6 2.5 5.7 0 .2-11.6.5-25.8.7-25.3.3-25.8.3-31.2 2.9-7 3.3-12.6 8.9-15.9 15.9l-2.6 5.5-.3 45-.3 45 2.3 4.5c1.7 3.3 3.5 5.1 6.8 6.8l4.4 2.2h485.2l4.4-2.3c3.3-1.6 5.1-3.4 6.8-6.7l2.3-4.5-.3-45-.3-45-2.6-5.5c-3.3-7-8.9-12.6-15.9-15.9-5.4-2.6-6-2.6-30.2-2.9-13.7-.2-24.8-.5-24.8-.7 0-.1 1.1-2.7 2.5-5.7 4.9-10.7 6.8-20.2 6.8-34.3 0-10.1-.5-14.8-2.2-21-13.6-50.8-65.9-78.3-116.4-61.1C306.5 45 287.4 61 263.5 92c-3.1 4.1-6.1 7.5-6.5 7.5-.4 0-4.7-5.2-9.6-11.5-23.4-30.2-45.3-46.7-70.1-53.1-9-2.2-27.1-3.2-35.8-1.9zm27.4 48.9c15 4.7 33.5 23.7 60.3 62.1 5.1 7.4 9.7 14.1 10.2 14.8.6 1-8.2 1.2-47.6 1l-48.3-.3-6.6-3.2c-8-3.9-15.9-12-19.7-20-2.4-5.2-2.7-7-2.7-16.3s.3-11.2 2.7-16.2c2.9-6.2 10.1-14.6 15.4-17.9 9.8-6 24.5-7.7 36.3-4zm207.4 1.4c8 3.6 16 11.6 20 19.6 3 6.2 3.2 7.3 3.2 17.1s-.2 10.9-3.2 17.1c-3.9 8-12 15.9-20 19.7l-5.8 2.7-48.4.3-48.4.3 1.8-2.8c1-1.5 6.5-9.4 12.1-17.4 26.8-37.6 44.4-55.1 59.7-59 1.8-.4 7.7-.7 13.2-.5 8.3.2 11 .7 15.8 2.9zM32.2 387.7l.3 67.8 2.6 5.5c3.3 7 8.9 12.6 15.9 15.9l5.5 2.6 83.8.3 83.7.3V320H31.9l.3 67.7zM288 400v80.1l83.8-.3 83.7-.3 5.5-2.6c7-3.3 12.6-8.9 15.9-15.9l2.6-5.5.3-67.8.3-67.7H288v80z"/>
</svg>
