<svg version="1.0" xmlns="http://www.w3.org/2000/svg" viewBox="0 0 560 240">
  <path fill="#255376" d="M104.7 52.7c-.4.3-.7 3.6-.7 7.2s-.7 12-1.5 18.6c-1.2 9.9-5.3 53.2-8.1 85.2-.6 7.3-2.4 10.2-2.4 4 0-3.1-1.9-17.3-7-51.7-4.8-32.3-7-44.2-8.2-45.8-2.3-2.7-3.7-1.2-4.2 4.5-.3 3.2-1.7 14.6-3 25.3-1.4 10.7-3 27.8-3.6 38-1.3 22.1-2.1 32.2-2.6 31.7-.4-.3-4.6-37.1-7.4-64.2-.5-5.5-1.4-14.1-2-19-.5-5-1.2-13.3-1.6-18.5-.7-9.8-1.5-12-4.3-12-4 .1-4.3 1.2-2.7 10.6 1.7 9.7 5 35.8 8.6 66.4 1.4 12.5 2.6 20.9 4.9 36 1.1 7.4 2.2 15.1 2.3 17 .2 2.7.8 3.6 2.5 3.8 2.7.4 2.9-.3 4.3-16.8.6-6.9 1.5-17 2-22.5 1.9-20.8 3-33.4 4.1-46 1-12.4 2.6-22.3 2.8-18 .4 7.4 10.9 88.4 12.9 99 .6 3.4 1.1 4 3.4 4.3 2.4.3 2.8-.1 3.2-3 .9-5.3 4.8-43.3 9.6-93.8 2-20.5 4.1-35.4 5.2-36.7 2.1-2.6-4.1-6-6.5-3.6zM199 71.3c-4.2 2-8.3 11.6-8.8 20.7-.6 10.1 1.9 18.6 9.9 33.6 6.9 13 8.5 17.3 10 26.2 1.3 8.3-.2 18.7-3.6 25.8-3 6.2-5.9 7.9-12 7.1-3.6-.5-4.5-.4-4.5.8 0 2.6 4.6 4.8 8.2 4 11.4-2.5 16.9-12.4 16.9-30.5 0-14.6-1.5-19.8-11.1-36.5-5.5-9.6-6.5-12.1-8.5-20.5-1.8-7.8-.6-17.1 2.9-22.3 1.9-2.7 2.8-3.2 6.9-3.5 5.3-.3 6.2-2.1 2.5-4.6-2.7-1.9-5.4-2-8.8-.3zm72 .2c-1 1.2-1.1 4.7-.1 17.8.6 8.9 1.1 20.6 1.1 25.9 0 8.9-.2 9.8-2.1 10.9-2.2 1.1-15.2.9-16.4-.3-.4-.3-.7-12.1-.8-26.2-.2-26.8-.6-29.4-4.5-27-1.4.9-1.7 2.5-1.5 9 .1 4.4.3 29.4.5 55.6.3 44.5.4 47.8 2.1 49.5 1.8 1.7 1.9 1.7 3.3-.2 1.2-1.6 1.4-3.6.9-9.7-1.1-13.7-.8-45 .6-45.8.6-.5 2.6-.4 4.3.1 1.7.5 5.2.9 7.9.9 2.9 0 4.9.5 5.2 1.2.2.7.7 13.3 1 28 .7 24.2.9 26.8 2.4 26.8.9 0 2.2.5 2.8 1.1.6.6 1.3.7 1.5.2.2-.4.1-13.9-.3-29.8-.4-16-1.1-42.4-1.5-58.8-.4-16.3-1.1-29.7-1.5-29.7-.4 0-1.4-.2-2.2-.5-.7-.3-2 .1-2.7 1zm153 2.2c-2.9 3-4 5.3-5.5 11.1-3.3 13.9-1.4 21.6 11.3 45.4 5 9.3 8.2 20.2 8.2 27.8-.1 11.6-4.3 23.5-9.2 26.1-1.1.6-4.1.9-6.6.7-5.4-.3-6.5 1.6-2.2 4 3.4 1.9 9.8.2 14.5-3.9 6.6-5.8 9.7-20.3 7.6-35.4-1.2-8.6-4-15.3-12.1-29.5-8-14-9.9-25.8-5.9-36.5 2.3-6.2 4-7.5 9.8-7.5 4.6 0 5.1-1 2.1-4-3.2-3.2-7.6-2.6-12 1.7zm40.7-1.5c-1.7 1.3-1.7 1.5-.3 2.7.9.8 4.9 1.6 8.9 1.9 3.9.3 7.5 1 7.9 1.6.4.6.8 4.8.8 9.2 0 4.5.7 19.8 1.5 34 .8 14.3 1.7 34.4 2 44.8.3 11.1.9 19.4 1.5 20 .7.7 1.6.7 2.8 0 1.5-1 1.7-3.2 1.6-20.5-.1-10.7-.9-33.3-1.8-50.2-.9-17-1.6-32.7-1.6-34.9v-4.1l8.9.7c7.1.5 9 .4 10-.8.7-.8 1-1.9.7-2.4-.3-.5-8.1-1.2-17.3-1.6-9.2-.3-18.4-.9-20.3-1.2-2.2-.3-4.2 0-5.3.8zm-331.3 1.9c-1.2 1.9 1.6 3.4 6.6 3.4 2.7 0 5.1.3 5.5.7 1.1 1.1 1.2 102 0 102.3-.5.2-2.2.6-3.7.9-1.9.4-2.8 1.3-2.8 2.5 0 3 8.3 3.9 21 2.4 5.6-.7 6.5-1.1 6.8-3 .3-1.8-.3-2.2-3.7-2.8-2.2-.4-4.5-.4-5.1 0-.5.3-1.9.4-2.9 0-1.7-.5-1.9-2.4-2.7-21.3-.8-19.5-.6-78.9.3-80.4.2-.4 1.4-.3 2.7.2 3.1 1.2 6.8.2 6.4-1.8-.2-.8-1.9-2.1-3.8-2.8-4.4-1.6-23.6-1.8-24.6-.3zm227.3-.5c-.3.4-.2 1.5.4 2.6.9 1.7 1.8 1.9 5.2 1.4 7.7-1.1 7.2-4.6 7.3 52.4l.1 51H371c-3 0-5.6 2.3-4.5 4 .3.5 2.1 1 4 1s3.7.5 4.1 1.1c.4.7 1.9.8 3.8.4 1.7-.3 5.8-.9 9.1-1.3 5.1-.6 6-1 6.3-2.8.2-1.7-.4-2.3-2.8-2.8-1.8-.3-4.2-.3-5.3 0-1.2.2-3-.1-4-.9-1.8-1.2-1.9-4.3-2.4-49.9-.4-26.7-.3-49.3 0-50.2.5-1.2 1.2-1.4 3.1-.7 3.1 1.3 6.8.3 6.4-1.7-.2-.8-1.9-2.1-3.8-2.8-3.6-1.3-23.2-1.9-24.3-.8zm-43.3 1.6c-1 1.5-2.9 111-2.1 113.2.5 1.3 2.6 1.6 11.7 1.6 12.4 0 15.6-.9 14-4-.9-1.7-2.4-2-10.3-2.2l-9.2-.3v-54c0-34.8-.4-54.3-1-54.7-1.4-1.1-2.3-1-3.1.4z"/>
</svg>